<?xml version="1.0"?>
<svg xmlns="http://www.w3.org/2000/svg" id="bold" enable-background="new 0 0 24 24" height="512px" viewBox="0 0 24 24" width="512px" class=""><g><g><g><g><path d="m20.25 24h-17.5c-.251 0-.485-.125-.624-.334l-2-3c-.153-.23-.168-.526-.037-.77.13-.244.385-.396.661-.396h13c1.241 0 2.25-1.009 2.25-2.25 0-.414.336-.75.75-.75h6.5c.26 0 .501.135.638.355.136.221.149.498.033.73l-3 6c-.127.254-.387.415-.671.415z" data-original="#000000" class="active-path" data-old_color="#000000" fill="#FFFFFF"/></g></g></g><g><g><g><path d="m22 12.75v2.75h-1.5v-2.75c0-.41.34-.75.75-.75s.75.34.75.75z" data-original="#000000" class="active-path" data-old_color="#000000" fill="#FFFFFF"/></g></g></g><g><g><g><path d="m1 12.5v6h8v-6zm3.5 4.25c0 .414-.336.75-.75.75s-.75-.336-.75-.75v-2.5c0-.414.336-.75.75-.75s.75.336.75.75zm2.5 0c0 .414-.336.75-.75.75s-.75-.336-.75-.75v-2.5c0-.414.336-.75.75-.75s.75.336.75.75z" data-original="#000000" class="active-path" data-old_color="#000000" fill="#FFFFFF"/></g></g></g><g><g><g><path d="m10 12.5v6h3.75c.62 0 1.14-.46 1.23-1.06-.28-.1-.48-.38-.48-.69v-2.5c0-.41.34-.75.75-.75s.75.34.75.75v1.43c.23-.12.48-.18.75-.18h1.25v-3zm3.5 4.25c0 .41-.34.75-.75.75s-.75-.34-.75-.75v-2.5c0-.41.34-.75.75-.75s.75.34.75.75z" data-original="#000000" class="active-path" data-old_color="#000000" fill="#FFFFFF"/></g></g></g><g><g><g><path d="m1 6.5v5h8v-5zm3.5 3.25c0 .414-.336.75-.75.75s-.75-.336-.75-.75v-1.5c0-.414.336-.75.75-.75s.75.336.75.75zm2.5 0c0 .414-.336.75-.75.75s-.75-.336-.75-.75v-1.5c0-.414.336-.75.75-.75s.75.336.75.75z" data-original="#000000" class="active-path" data-old_color="#000000" fill="#FFFFFF"/></g></g></g><g><g><g><path d="m8.25.5h-6.5c-.414 0-.75.336-.75.75v4.25h8v-4.25c0-.414-.336-.75-.75-.75zm-3.75 3.25c0 .414-.336.75-.75.75s-.75-.336-.75-.75v-1.5c0-.414.336-.75.75-.75s.75.336.75.75zm2.5 0c0 .414-.336.75-.75.75s-.75-.336-.75-.75v-1.5c0-.414.336-.75.75-.75s.75.336.75.75z" data-original="#000000" class="active-path" data-old_color="#000000" fill="#FFFFFF"/></g></g></g><g><g><g><path d="m17.25 6.5h-7.25v5h8v-4.25c0-.414-.336-.75-.75-.75zm-3.75 3.25c0 .414-.336.75-.75.75s-.75-.336-.75-.75v-1.5c0-.414.336-.75.75-.75s.75.336.75.75zm2.5 0c0 .414-.336.75-.75.75s-.75-.336-.75-.75v-1.5c0-.414.336-.75.75-.75s.75.336.75.75z" data-original="#000000" class="active-path" data-old_color="#000000" fill="#FFFFFF"/></g></g></g></g> </svg>
