<svg id="Layer_1" data-name="Layer 1" xmlns="http://www.w3.org/2000/svg" viewBox="0 0 26 27.17"><defs><style>.cls-1{fill:#fff;}</style></defs><title>next</title><path class="cls-1" d="M14.34,14.06l12-12a1,1,0,0,0,0-1.41,1,1,0,0,0-1.39,0l-11.3,11.3L2.34.64A1,1,0,0,0,.92.64a1,1,0,0,0,0,1.41l12,12a1,1,0,0,0,1.41,0Zm0,0" transform="translate(-0.63 -0.34)"/><path class="cls-1" d="M14.18,21.62l9.23-9.24a.76.76,0,0,0,0-1.09.79.79,0,0,0-1.07,0L13.63,20l-8.69-8.7a.77.77,0,0,0-1.09,1.09l9.24,9.24a.77.77,0,0,0,1.09,0Zm0,0" transform="translate(-0.63 -0.34)"/><path class="cls-1" d="M14,27.38l5.54-5.54a.46.46,0,0,0,0-.65.47.47,0,0,0-.64,0L13.63,26.4,8.42,21.19a.47.47,0,0,0-.66,0,.46.46,0,0,0,0,.65l5.54,5.54a.47.47,0,0,0,.66,0Zm0,0" transform="translate(-0.63 -0.34)"/></svg>