<?xml version="1.0"?>
<svg xmlns="http://www.w3.org/2000/svg" id="Capa_1" enable-background="new 0 0 512 512" height="512px" viewBox="0 0 512 512" width="512px" class=""><g><g id="XMLID_1618_"><g id="XMLID_29_"><path id="XMLID_473_" d="m509.071 454.55c-23.295-23.294-57.559-29.097-86.321-17.413 23.088-48.807 35.247-102.691 35.247-156.712 0-4.696-3.269-8.761-7.856-9.768-12.232-2.685-24.287-5.958-36.14-9.774v-85.885c0-22.484-15.874-41.321-37-45.919v-39.08c0-5.523-4.477-10-10-10h-73v-50c0-5.523-4.477-10-10-10h-56c-5.523 0-10 4.477-10 10v50h-73c-5.523 0-10 4.477-10 10v39.081c-21.126 4.597-37 23.434-37 45.919v85.887c-11.85 3.815-23.903 7.087-36.132 9.771-4.587 1.007-7.856 5.071-7.856 9.768 0 54.029 12.156 107.914 35.239 156.712-28.762-11.685-63.026-5.882-86.322 17.413-3.905 3.905-3.906 10.237 0 14.143 3.906 3.904 10.238 3.905 14.142 0 23.23-23.229 61.028-23.229 84.258 0 15.031 15.03 35.015 23.309 56.271 23.309s41.241-8.278 56.271-23.309c23.23-23.229 61.028-23.229 84.258 0 15.031 15.03 35.015 23.309 56.271 23.309s41.24-8.278 56.271-23.309c23.231-23.229 61.029-23.229 84.258 0 3.905 3.904 10.237 3.904 14.142 0 3.905-3.906 3.904-10.238-.001-14.143zm-152.071-326.551h-35.5v-28h35.5zm-91 0v-28h18 17.5v28zm-55.5 0v-28h17.5 18v28zm27.5-88h36v40h-36zm-83 60h35.5v28h-35.5zm-37 75c0-14.888 12.112-27 27-27h222c14.888 0 27 12.112 27 27v78.847c-48.604-18.599-93.2-46.737-131.085-83-3.866-3.701-9.963-3.701-13.829 0-37.888 36.265-82.484 64.404-131.086 83.003zm128 25.611v49.327c-46.959 43.947-104.334 75.073-166.705 90.494-3.033-17.187-4.784-34.603-5.19-52.065 63.518-15.263 122.39-45.356 171.895-87.756zm-46.271 253.94c-11.253 11.254-26.214 17.451-42.129 17.451-12.016 0-23.486-3.538-33.229-10.112l-11.289-21.694c-13.197-25.36-23.173-52.356-29.745-80.162 60.045-14.72 115.715-43.254 162.663-83.285v155.18c-16.928 2.125-33.301 9.652-46.271 22.622zm112.542 0c-12.97-12.97-29.343-20.496-46.271-22.623v-155.198c12.013 10.24 24.638 19.797 37.75 28.51 1.702 1.131 3.624 1.672 5.525 1.672 3.236 0 6.413-1.568 8.338-4.466 3.057-4.601 1.806-10.808-2.794-13.864-17.273-11.478-33.667-24.481-48.82-38.659v-49.312c49.504 42.399 108.38 72.492 171.904 87.756-.406 17.461-2.158 34.877-5.192 52.065-13.503-3.341-26.883-7.433-39.892-12.231-5.181-1.91-10.932.739-12.843 5.921s.74 10.932 5.922 12.843c13.943 5.143 28.292 9.516 42.769 13.069-6.573 27.803-16.551 54.799-29.749 80.162l-11.289 21.694c-9.743 6.575-21.213 10.113-33.229 10.113-15.914-.001-30.876-6.198-42.129-17.452z" data-original="#000000" class="active-path" data-old_color="#000000" fill="#FFFFFF"/><path id="XMLID_484_" d="m348.102 364.545c-18.748 0-34 15.252-34 34s15.252 34 34 34 34-15.252 34-34-15.253-34-34-34zm0 48c-7.72 0-14-6.28-14-14s6.28-14 14-14 14 6.28 14 14-6.281 14-14 14z" data-original="#000000" class="active-path" data-old_color="#000000" fill="#FFFFFF"/><path id="XMLID_487_" d="m163.898 364.545c-18.748 0-34 15.252-34 34s15.252 34 34 34 34-15.252 34-34-15.252-34-34-34zm0 48c-7.72 0-14-6.28-14-14s6.28-14 14-14 14 6.28 14 14-6.28 14-14 14z" data-original="#000000" class="active-path" data-old_color="#000000" fill="#FFFFFF"/><path id="XMLID_488_" d="m348.1 329.59c2.64 0 5.21-1.07 7.07-2.93s2.93-4.44 2.93-7.07-1.07-5.21-2.93-7.07c-1.86-1.859-4.43-2.93-7.07-2.93-2.63 0-5.21 1.07-7.07 2.93s-2.93 4.44-2.93 7.07c0 2.64 1.07 5.21 2.93 7.07s4.44 2.93 7.07 2.93z" data-original="#000000" class="active-path" data-old_color="#000000" fill="#FFFFFF"/></g></g></g> </svg>
